<svg xmlns="http://www.w3.org/2000/svg" width="1800" height="900" viewBox="0 0 1800 900">
  <style>.b{rx:12;ry:12;stroke-width:2}.t{font-family:Arial,sans-serif;font-size:22px;fill:#1f2937}.s{font-family:Arial,sans-serif;font-size:18px;fill:#1f2937}.a{stroke:#4b5563;stroke-width:2.5;fill:none;marker-end:url(#m)}</style>
  <defs><marker id="m" markerWidth="10" markerHeight="10" refX="8" refY="3" orient="auto"><path d="M0,0 L8,3 L0,6 z" fill="#4b5563"/></marker></defs>
  <rect x="40" y="220" width="150" height="60" class="b" fill="#dae8fc" stroke="#6c8ebf"/><text x="115" y="257" text-anchor="middle" class="t">Talk to CareAI</text>
  <rect x="240" y="210" width="170" height="80" class="b" fill="#d5e8d4" stroke="#82b366"/><text x="325" y="248" text-anchor="middle" class="s">Mic + VAD</text><text x="325" y="272" text-anchor="middle" class="s">Speech start/end</text>
  <rect x="470" y="210" width="190" height="80" class="b" fill="#fff2cc" stroke="#d6b656"/><text x="565" y="248" text-anchor="middle" class="s">WebSocket</text><text x="565" y="272" text-anchor="middle" class="s">audio.chunk / audio.end</text>
  <rect x="720" y="210" width="190" height="80" class="b" fill="#f8cecc" stroke="#b85450"/><text x="815" y="248" text-anchor="middle" class="s">Patient voice handler</text><text x="815" y="272" text-anchor="middle" class="s">Rebuild turn audio</text>
  <rect x="970" y="210" width="180" height="80" class="b" fill="#f5f5f5" stroke="#666666"/><text x="1060" y="248" text-anchor="middle" class="s">STT</text><text x="1060" y="272" text-anchor="middle" class="s">VoiceOrchestratorService</text>
  <rect x="1210" y="200" width="250" height="100" class="b" fill="#e1d5e7" stroke="#9673a6"/><text x="1335" y="244" text-anchor="middle" class="t">PatientPortalCareAiService</text><text x="1335" y="272" text-anchor="middle" class="s">Context + planner + deterministic workflow</text>
  <rect x="970" y="360" width="180" height="80" class="b" fill="#f5f5f5" stroke="#666666"/><text x="1060" y="398" text-anchor="middle" class="s">TTS</text><text x="1060" y="422" text-anchor="middle" class="s">VoiceOrchestratorService</text>
  <rect x="720" y="360" width="190" height="80" class="b" fill="#fff2cc" stroke="#d6b656"/><text x="815" y="398" text-anchor="middle" class="s">assistant.audio.chunk / end</text>
  <rect x="470" y="350" width="190" height="100" class="b" fill="#dae8fc" stroke="#6c8ebf"/><text x="565" y="390" text-anchor="middle" class="s">Playback</text><text x="565" y="415" text-anchor="middle" class="s">Speaking</text><text x="565" y="440" text-anchor="middle" class="s">Auto-resume listening</text>
  <path d="M190 250 H240" class="a"/><path d="M410 250 H470" class="a"/><path d="M660 250 H720" class="a"/><path d="M910 250 H970" class="a"/><path d="M1150 250 H1210" class="a"/><path d="M1210 300 L1150 360" class="a"/><path d="M970 400 H910" class="a"/><path d="M720 400 H660" class="a"/><path d="M470 400 H410" class="a"/><path d="M470 440 C350 520,280 520,240 290" class="a" stroke-dasharray="6 6"/>
</svg>
