<svg xmlns="http://www.w3.org/2000/svg" width="1800" height="1000" viewBox="0 0 1800 1000">
  <style>.b{rx:12;ry:12;stroke-width:2}.t{font-family:Arial,sans-serif;font-size:20px;fill:#1f2937}.a{stroke:#4b5563;stroke-width:2.5;fill:none;marker-end:url(#m)}</style>
  <defs><marker id="m" markerWidth="10" markerHeight="10" refX="8" refY="3" orient="auto"><path d="M0,0 L8,3 L0,6 z" fill="#4b5563"/></marker></defs>
  <rect x="70" y="120" width="180" height="70" class="b" fill="#dae8fc" stroke="#6c8ebf"/><text x="160" y="162" text-anchor="middle" class="t">Voice Layer</text>
  <rect x="70" y="230" width="180" height="70" class="b" fill="#dae8fc" stroke="#6c8ebf"/><text x="160" y="272" text-anchor="middle" class="t">Chat Layer</text>
  <rect x="340" y="170" width="200" height="90" class="b" fill="#e1d5e7" stroke="#9673a6"/><text x="440" y="225" text-anchor="middle" class="t">Agent Runtime</text>
  <rect x="620" y="80" width="180" height="70" class="b" fill="#e1d5e7" stroke="#9673a6"/><text x="710" y="122" text-anchor="middle" class="t">Planner</text>
  <rect x="620" y="180" width="180" height="70" class="b" fill="#e1d5e7" stroke="#9673a6"/><text x="710" y="222" text-anchor="middle" class="t">Conversation Manager</text>
  <rect x="620" y="280" width="180" height="70" class="b" fill="#e1d5e7" stroke="#9673a6"/><text x="710" y="322" text-anchor="middle" class="t">Memory</text>
  <rect x="900" y="80" width="180" height="70" class="b" fill="#fff2cc" stroke="#d6b656"/><text x="990" y="122" text-anchor="middle" class="t">Tool Registry</text>
  <rect x="900" y="180" width="180" height="70" class="b" fill="#fff2cc" stroke="#d6b656"/><text x="990" y="222" text-anchor="middle" class="t">Workflow Engine</text>
  <rect x="900" y="280" width="180" height="70" class="b" fill="#fff2cc" stroke="#d6b656"/><text x="990" y="322" text-anchor="middle" class="t">RAG Engine</text>
  <rect x="1180" y="80" width="180" height="70" class="b" fill="#d5e8d4" stroke="#82b366"/><text x="1270" y="122" text-anchor="middle" class="t">Model Gateway</text>
  <rect x="1180" y="180" width="180" height="70" class="b" fill="#d5e8d4" stroke="#82b366"/><text x="1270" y="222" text-anchor="middle" class="t">Prompt Registry</text>
  <rect x="1180" y="280" width="220" height="90" class="b" fill="#f8cecc" stroke="#b85450"/><text x="1290" y="320" text-anchor="middle" class="t">Observability / Audit / Cost</text><text x="1290" y="346" text-anchor="middle" class="t">Evaluation</text>
  <rect x="620" y="420" width="480" height="90" class="b" fill="#dae8fc" stroke="#6c8ebf"/><text x="860" y="462" text-anchor="middle" class="t">Domain Packs</text><text x="860" y="488" text-anchor="middle" class="t">Healthcare | Wealth | Finance | Knowledge | RouteExpert</text>
  <path d="M250 155 H340" class="a"/><path d="M250 265 H340" class="a"/><path d="M540 215 H620" class="a"/><path d="M540 215 C570 215,570 115,620 115" class="a"/><path d="M540 215 C570 215,570 315,620 315" class="a"/><path d="M800 115 H900" class="a"/><path d="M800 215 H900" class="a"/><path d="M800 315 H900" class="a"/><path d="M1080 115 H1180" class="a"/><path d="M1080 215 H1180" class="a"/><path d="M1080 315 H1180" class="a"/><path d="M990 250 V420" class="a"/>
</svg>
